<svg xmlns="http://www.w3.org/2000/svg" viewBox="0 0 1050 1400">
  <defs><linearGradient id="bg" x1="0" y1="0" x2="0" y2="1"><stop stop-color="#b8ced0"/><stop offset="1" stop-color="#77999a"/></linearGradient><filter id="grain"><feTurbulence baseFrequency=".64" numOctaves="3" seed="5"/><feColorMatrix values="1 0 0 0 0 0 1 0 0 0 0 0 1 0 0 0 0 0 .12 0"/></filter></defs>
  <rect width="1050" height="1400" fill="url(#bg)"/>
  <g fill="none" stroke="#e6eadb" stroke-width="7" stroke-linecap="round">
    <path d="M495 1390c-1-412-73-741-254-1014M414 1015c-153-56-271-55-356 4M365 812c47-142 111-251 192-328"/>
    <path d="M726 1395c7-343 76-634 214-873M777 1023c91-91 173-141 247-151M824 780c-55-77-113-130-174-159"/>
  </g>
  <g fill="#547978">
    <path d="M318 720c-127-23-209-87-245-192 127 23 209 87 245 192Z"/>
    <path d="M407 949c-147-7-247-68-299-182 147 7 247 68 299 182Z"/>
    <path d="M808 875c135-18 226-83 271-194-135 18-226 83-271 194Z"/>
    <path d="M732 1122c139-2 238-56 296-163-139 2-238 56-296 163Z"/>
  </g>
  <g fill="#f2e8da">
    <circle cx="231" cy="365" r="28"/><circle cx="198" cy="382" r="28"/><circle cx="216" cy="415" r="28"/><circle cx="251" cy="396" r="28"/><circle cx="225" cy="390" r="13" fill="#d9a7ad"/>
    <circle cx="941" cy="513" r="25"/><circle cx="912" cy="529" r="25"/><circle cx="929" cy="559" r="25"/><circle cx="960" cy="542" r="25"/><circle cx="936" cy="535" r="12" fill="#ead9a5"/>
  </g>
  <g fill="#eaf2ef" opacity=".7"><path d="m752 245-12 34c-10 30 31 43 40 13 6-20-8-34-28-47Z"/><path d="m153 881-10 29c-9 26 26 36 34 11 5-17-7-29-24-40Z"/><path d="m636 400-8 23c-7 21 21 29 27 9 4-13-5-23-19-32Z"/></g>
  <rect width="1050" height="1400" filter="url(#grain)" opacity=".3"/>
</svg>
